<?xml version="1.0" encoding="UTF-8"?>
<svg enable-background="new 0 0 512 512" version="1.1" viewBox="0 0 512 512" xml:space="preserve" xmlns="http://www.w3.org/2000/svg">
	<path d="m424.67 280.93c-3.027 0.245-5.985 0.551-8.911 0.884 0.155 2.042 0.24 4.104 0.24 6.186 0 44.109-35.891 80-80 80-21.027 0-41.193-8.324-56.102-22.983-7.103 4.538-15.333 6.983-23.899 6.983v80h32c4.422 0 8 3.578 8 8s-3.578 8-8 8h-32v64c29.625 0 72.719-26.742 109.8-68.133 43.661-48.73 73.781-111.07 85.026-175.8-6.573 7.261-15.795 12.023-26.151 12.868z" fill="#0bb"/>
    <path d="M224,448c-4.422,0-8-3.578-8-8s3.578-8,8-8h32v-80c-8.565,0-16.795-2.445-23.897-6.982   C217.193,359.678,197.023,368,176,368c-44.109,0-80-35.891-80-80c0-2.082,0.084-4.144,0.24-6.186   c-2.927-0.333-5.885-0.639-8.912-0.884c-10.354-0.844-19.576-5.604-26.148-12.865C87.041,417.096,203.263,512,256,512v-64H224z" fill="#52798F"/>
    <path d="m183.95 309.09c0.028 0.961 0.047 1.927 0.047 2.906 0 22.091-7.164 40-16 40-8.837 0-16-17.909-16-40 0-6.017 0.535-11.719 1.487-16.838-16.417-6.042-35.454-10.87-57.247-13.349-0.156 2.043-0.24 4.105-0.24 6.187 0 44.109 35.891 80 80 80 21.023 0 41.193-8.322 56.103-22.982-2.602-1.662-5.056-3.597-7.314-5.807-8.676-8.503-22.129-19.727-40.836-30.117z" fill="#FFCF00"/>
    <path d="m416 288c0-2.082-0.084-4.144-0.24-6.186-21.793 2.479-40.83 7.306-57.247 13.348 0.952 5.119 1.487 10.821 1.487 16.838 0 22.091-7.163 40-16 40-8.836 0-16-17.909-16-40 0-0.979 0.019-1.946 0.047-2.907-18.707 10.389-32.16 21.611-40.835 30.11v8e-3c-2.258 2.21-4.712 4.144-7.313 5.806 14.908 14.658 35.074 22.983 56.101 22.983 44.109 0 80-35.891 80-80z" fill="#FFCF00"/>
    <path d="m216 440c0 4.422 3.578 8 8 8h64c4.422 0 8-3.578 8-8s-3.578-8-8-8h-64c-4.422 0-8 3.578-8 8z" fill="#5C546A"/>
    <path d="m168 352c8.836 0 16-17.909 16-40 0-0.978-0.019-1.945-0.047-2.906-8.938-4.964-19.071-9.737-30.467-13.932-0.951 5.119-1.486 10.821-1.486 16.838 0 22.091 7.163 40 16 40z" fill="#fff"/>
    <path d="m344 352c8.837 0 16-17.909 16-40 0-6.017-0.535-11.719-1.487-16.838-11.396 4.194-21.529 8.967-30.467 13.931-0.027 0.961-0.046 1.928-0.046 2.907 0 22.091 7.163 40 16 40z" fill="#fff"/>
    <path d="m464 208c0-114.7-93.305-208-208-208v352c8.566 0 16.796-2.445 23.897-6.983 2.601-1.662 5.056-3.597 7.313-5.806v-8e-3c8.676-8.499 22.129-19.721 40.835-30.11 8.938-4.964 19.071-9.736 30.467-13.931 16.417-6.042 35.454-10.869 57.247-13.348 2.927-0.333 5.885-0.639 8.911-0.884 10.356-0.845 19.579-5.606 26.151-12.867 5.039-5.568 8.521-12.604 9.755-20.476 2.338-14.892 3.424-27.47 3.424-39.587z" fill="#00E389"/>
    <path d="m87.328 280.93c3.027 0.245 5.985 0.551 8.912 0.884 21.793 2.479 40.83 7.306 57.247 13.349 11.396 4.194 21.529 8.968 30.467 13.932 18.707 10.39 32.16 21.614 40.836 30.117 2.258 2.21 4.712 4.145 7.314 5.807 7.101 4.536 15.331 6.981 23.896 6.981v-352c-114.7 0-208 93.305-208 208 0 12.109 1.086 24.688 3.422 39.578 1.234 7.878 4.718 14.917 9.759 20.487 6.571 7.26 15.793 12.02 26.147 12.865z" fill="#0bb"/>
</svg>
